# xmcd
#
# Track frame offsets: 
#        150
#        22293
#        40566
#        55717
#        78042
#        91733
#        105716
#        129860
#        156748
#        177860
#        198024
#        220380
#        234082
#
# Disc length: 3383 seconds
#
# Revision: 0
# Processed by: cddbd v1.5.2PL0 Copyright (c) Steve Scherf et al.
# Submitted via: ExactAudioCopy v0.99pb3
#
DISCID=9a0d350d
DTITLE=The Brass Messengers - Brass Messengers
DYEAR=2008
DGENRE=Jazz
TTITLE0=Mask On The Mantle
TTITLE1=La Rose Jaune
TTITLE2=Rhumba Tziganeasca
TTITLE3=Instead
TTITLE4=Cry Cry Cry
TTITLE5=De Makebam
TTITLE6=Amacord
TTITLE7=Pravo Hora
TTITLE8=Cherry Pink
TTITLE9=Bella Ciao
TTITLE10=Por Que Va
TTITLE11=Manea
TTITLE12=Sweet Bye And Bye
EXTD=
EXTT0=
EXTT1=
EXTT2=
EXTT3=
EXTT4=
EXTT5=
EXTT6=
EXTT7=
EXTT8=
EXTT9=
EXTT10=
EXTT11=
EXTT12=
PLAYORDER=
